<?xml version="1.0" encoding="UTF-8" standalone="no"?>
<!-- Generator: Adobe Illustrator 18.0.0, SVG Export Plug-In . SVG Version: 6.00 Build 0)  -->

<svg
   version="1.1"
   id="GraphQL_Logo"
   x="0px"
   y="0px"
   viewBox="0 0 24 24"
   enable-background="new 0 0 400 400"
   xml:space="preserve"
   sodipodi:docname="graphql.svg"
   inkscape:version="1.1.1 (1:1.1+202109281946+c3084ef5ed)"
   width="24"
   height="24"
   xmlns:inkscape="http://www.inkscape.org/namespaces/inkscape"
   xmlns:sodipodi="http://sodipodi.sourceforge.net/DTD/sodipodi-0.dtd"
   xmlns="http://www.w3.org/2000/svg"
   xmlns:svg="http://www.w3.org/2000/svg"><defs
   id="defs73" /><sodipodi:namedview
   id="namedview71"
   pagecolor="#ffffff"
   bordercolor="#666666"
   borderopacity="1.0"
   inkscape:pageshadow="2"
   inkscape:pageopacity="0.0"
   inkscape:pagecheckerboard="0"
   showgrid="false"
   inkscape:zoom="1.955"
   inkscape:cx="145.01279"
   inkscape:cy="195.65217"
   inkscape:window-width="1852"
   inkscape:window-height="1016"
   inkscape:window-x="0"
   inkscape:window-y="0"
   inkscape:window-maximized="1"
   inkscape:current-layer="GraphQL_Logo" />
<g
   id="g68"
   transform="matrix(0.06886259,0,0,0.06128703,-1.7725185,-0.25740553)">
	<g
   id="g6">
		<g
   id="g4">
			
				
		</g>
	</g>
	<g
   id="g12">
		<g
   id="g10">
			
		</g>
	</g>
	<g
   id="g18">
		<g
   id="g16">
			
				
		</g>
	</g>
	<g
   id="g24">
		<g
   id="g22">
			
				
		</g>
	</g>
	<g
   id="g30">
		<g
   id="g28">
			
				
		</g>
	</g>
	<g
   id="g36">
		<g
   id="g34">
			
				
		</g>
	</g>
	<g
   id="g42">
		<g
   id="g40">
			
		</g>
	</g>
	<g
   id="g48">
		<g
   id="g46">
			
		</g>
	</g>
	<g
   id="g54">
		<g
   id="g52">
			
				
		</g>
	</g>
	
	
	
	
	
	<path
   id="path66"
   d="m 200,74 c -19.3,0 -34.9,-15.6 -34.9,-34.9 0,-19.3 15.6,-34.9 34.9,-34.9 19.3,0 34.9,15.6 34.9,34.9 0,19.3 -15.6,34.9 -34.9,34.9 m 0,321.8 c -19.3,0 -34.9,-15.6 -34.9,-34.9 0,-19.3 15.6,-34.9 34.9,-34.9 19.3,0 34.9,15.6 34.9,34.9 0,19.2 -15.6,34.9 -34.9,34.9 M 309.1,137 c -9.6,-16.7 -3.9,-38 12.8,-47.7 16.7,-9.6 38,-3.9 47.7,12.8 9.6,16.7 3.9,38 -12.8,47.7 -16.7,9.6 -38.1,3.9 -47.7,-12.8 M 30.5,297.9 c -9.6,-16.7 -3.9,-38 12.8,-47.7 16.7,-9.6 38,-3.9 47.7,12.8 9.6,16.7 3.9,38 -12.8,47.7 -16.8,9.6 -38.1,3.9 -47.7,-12.8 M 90.9,137 c -9.6,16.7 -31,22.4 -47.7,12.8 -16.7,-9.6 -22.4,-31 -12.8,-47.7 9.6,-16.7 31,-22.4 47.7,-12.8 16.7,9.7 22.4,31 12.8,47.7 m 278.6,160.9 c -9.6,16.7 -31,22.4 -47.7,12.8 -16.7,-9.6 -22.4,-31 -12.8,-47.7 9.6,-16.7 31,-22.4 47.7,-12.8 16.8,9.7 22.5,31 12.8,47.7 m -165.97809,69.0991 -7.25,-12.557 139.3394,-80.44999 7.25,12.557 z M 330.89999,107.5 h 16.6 v 185 h -16.6 z M 52.5,107.5 h 16.6 v 185 H 52.5 Z m 290.06841,195.163 -160.15,-277.379796 14.3756,-8.3 160.15,277.379786 z M 54.4823,132.8835 l -8.3,-14.3756 160.21,-92.5 8.3,14.3756 z m 291.03999,0.0632 -160.21,-92.500003 8.3,-14.375601 160.21,92.500004 z m -139.17439,241.07899 -160.209995,-92.5 8.3,-14.3756 160.209995,92.5 z M 39.799999,272.20001 H 360.09999 v 16.6 H 39.799999 Z M 57.4676,302.66 43.092,294.36 203.242,16.980209 l 14.37559,8.3 z" />
</g>
</svg>
